<svg version="1.2" xmlns="http://www.w3.org/2000/svg" viewBox="0 0 53 56" width="53" height="56"><style>.a{fill:#242424}</style><path fill-rule="evenodd" class="a" d="m31.1 12.5c0 0.5-0.4 0.9-0.9 0.9h-0.3c-0.5 0-0.9-0.4-0.9-0.9 0-0.5 0.4-0.9 0.9-0.9h0.3c0.5 0 0.9 0.4 0.9 0.9zm2.3 40.9c0 0.5-0.4 0.9-0.9 0.9h-3.3c-2.3 0-4.3-1.5-5.1-3.5h-6c-0.5 0-0.9-0.4-0.9-0.9 0-0.5 0.4-0.9 0.9-0.9h5.7q0-0.1 0-0.2v-17h-0.3c-0.5 0-0.9-0.4-0.9-0.9v-4.5c0-0.5 0.4-0.9 0.9-0.9h24.7c0.4 0 0.8 0.4 0.8 0.9v4.5c0 0.5-0.4 0.9-0.8 0.9h-0.3v5.8c0 0.5-0.4 0.9-0.9 0.9-0.5 0-0.9-0.4-0.9-0.9v-5.8h-20.6v17c0.1 0.6 0.2 1 0.2 1.1 0.4 1.5 1.8 2.6 3.5 2.6h3.3c0.5 0 0.9 0.4 0.9 0.9zm13.9-23.4v-2.7h-22.9v2.7zm-17.1-14.3h-0.2c-0.5 0-0.9 0.4-0.9 0.9 0 0.5 0.4 0.9 0.9 0.9h0.2c0.5 0 0.9-0.4 0.9-0.9 0-0.5-0.4-0.9-0.9-0.9zm-24.9 17.4q0.1 0 0.1 0c0.4 0 0.8-0.4 0.9-0.8l0.6-24h22.9c0.5 0 0.9-0.4 0.9-0.8 0-0.5-0.4-0.9-0.9-0.9h-22.8l0.1-3.9c0-0.2 0.2-0.4 0.4-0.4h25.3c0.2 0 0.3 0.2 0.3 0.4l0.6 18.9c0 0.5 0.4 0.9 0.9 0.9 0.5 0 0.9-0.4 0.9-0.9l-0.6-19c0-1.2-1-2.1-2.1-2.1h-25.3c-1.2 0-2.1 0.9-2.2 2.1l-0.8 29.6c0 0.5 0.3 0.9 0.8 0.9zm10.1 8.7v6.4c0 4.1-3.2 7.3-7.2 7.3-4.1 0-7.3-3.2-7.3-7.3v-6.4c0-4 3.2-7.3 7.3-7.3 4 0 7.2 3.3 7.2 7.3zm-9.7 11.4c-1.2-3-0.6-6.6 1.9-8.8 1.8-2.1 1.2-4.6-0.4-8-2.6 0.4-4.5 2.7-4.5 5.4v6.4c0 2.2 1.2 4.1 3 5zm7.9-11.4c0-2.7-1.9-4.9-4.4-5.4 1.4 3.1 2.2 6.4-0.3 9.2q0 0.1-0.1 0.1c-2.3 2.1-2.6 5.6-0.7 8.1q0 0 0.1 0c3 0 5.4-2.5 5.4-5.6zm35.9 10.2c-2.3 2.3-5.4 3.6-8.5 3.6q-1.2 0-2.4-0.3 0 0 0 0-0.2 0-0.3-0.1c-3.3-2.3-5.3-6-5.3-10 0-4.1 2-7.8 5.3-10.1 0.3-0.2 0.7-0.2 1 0 2.3 1.6 4 3.9 4.8 6.5 2.4-1.3 5.2-1.7 8-1.2 0.3 0.1 0.6 0.4 0.7 0.7 0.7 4-0.5 8.1-3.3 10.9zm-6.7-6.8c0-3.3-1.5-6.3-4-8.2-2.5 1.9-4 4.9-4 8.2 0 2.8 1.1 5.5 3.1 7.4v-6.5c0-0.5 0.4-0.9 0.9-0.9 0.5 0 0.9 0.4 0.9 0.9v6.5c2-1.9 3.1-4.6 3.1-7.4zm8.3-3.1c-2.3-0.3-4.6 0.2-6.6 1.3q0.1 0.9 0.1 1.8c0 3.2-1.3 6.3-3.6 8.6 2.7-0.1 5.3-1.1 7.2-3 2.3-2.3 3.3-5.5 2.9-8.7zm-25.7-30.5c-0.5 0-0.9 0.4-0.9 0.9 0 0.5 0.4 0.9 0.9 0.9h0.3c0.5 0 0.9-0.4 0.9-0.9 0-0.5-0.4-0.9-0.9-0.9zm0 0"/></svg>