<svg version="1.2" xmlns="http://www.w3.org/2000/svg" viewBox="0 0 415 121" width="415" height="121"><style>.a{opacity:.8;fill:#fff}</style><path class="a" d="m399.9 12.7l-14.8-12.5-14.8 12.5-14.8-12.5-14.8 12.5-14.8-12.5-14.8 12.5-14.7-12.5-14.8 12.5-14.8-12.5-14.8 12.5-14.8-12.5-14.8 12.5-14.8-12.5-14.8 12.5-14.8-12.5-14.7 12.5-14.8-12.5-14.8 12.5-14.8-12.5-14.8 12.5-14.8-12.5-14.8 12.5-14.8-12.5-14.7 12.5-14.8-12.5-14.8 12.5-14.8-12.5v12.5 95.1 12.5l14.8-12.5 14.8 12.5 14.8-12.5 14.7 12.5 14.8-12.5 14.8 12.5 14.8-12.5 14.8 12.5 14.8-12.5 14.8 12.5 14.8-12.5 14.7 12.5 14.8-12.5 14.8 12.5 14.8-12.5 14.8 12.5 14.8-12.5 14.8 12.5 14.8-12.5 14.8 12.5 14.7-12.5 14.8 12.5 14.8-12.5 14.8 12.5 14.8-12.5 14.8 12.5 14.8-12.5 14.8 12.5v-12.5-95.1-12.5z"/></svg>